<svg width="64" height="64" viewBox="0 0 64 64" fill="none" xmlns="http://www.w3.org/2000/svg">
  <defs>
    <linearGradient id="lemon" x1="14" y1="12" x2="52" y2="54" gradientUnits="userSpaceOnUse">
      <stop stop-color="#eaf65a"/>
      <stop offset="0.55" stop-color="#d8e84a"/>
      <stop offset="1" stop-color="#aacf2e"/>
    </linearGradient>
  </defs>
  <rect width="64" height="64" rx="14" fill="#0a0c11"/>
  <!-- leaf -->
  <path d="M40 15c6-5 12-4 12-4s0 6-5 10c-3.6 2.9-7.7 2.3-9.6.4-1.9-1.9-1-4.8 2.6-6.4z" fill="#7ee0b8"/>
  <!-- lemon body, tilted with nubs at both ends -->
  <g transform="rotate(-32 32 35)">
    <ellipse cx="32" cy="35" rx="16" ry="12.5" fill="url(#lemon)"/>
    <path d="M16 35c-2.4 0-3.8-.1-4.6-.6 1-.7 2.4-.9 4.6-.9z" fill="#aacf2e"/>
    <path d="M48 35c2.4 0 3.8.1 4.6.6-1 .7-2.4.9-4.6.9z" fill="#aacf2e"/>
    <!-- highlight -->
    <ellipse cx="25" cy="29" rx="6" ry="3.2" fill="#ffffff" opacity="0.35"/>
  </g>
</svg>
